<svg width="60" height="60" viewBox="0 0 60 60" xmlns="http://www.w3.org/2000/svg">
  <!-- Asteroid - irregular rock shape -->
  <defs>
    <linearGradient id="asteroidGradient" x1="20%" y1="20%" x2="80%" y2="80%">
      <stop offset="0%" style="stop-color:#8B7355;stop-opacity:1" />
      <stop offset="50%" style="stop-color:#A0522D;stop-opacity:1" />
      <stop offset="100%" style="stop-color:#654321;stop-opacity:1" />
    </linearGradient>
  </defs>
  
  <!-- Main asteroid body - irregular shape -->
  <path d="M 15,10 
           L 25,5 
           L 40,8 
           L 50,15 
           L 55,25 
           L 52,40 
           L 45,50 
           L 30,55 
           L 18,52 
           L 8,45 
           L 5,30 
           L 10,20 
           Z" 
        fill="url(#asteroidGradient)" 
        stroke="#5D4E37" 
        stroke-width="1"/>
  
  <!-- Surface craters/details -->
  <circle cx="20" cy="18" r="3" fill="#654321" opacity="0.6"/>
  <circle cx="35" cy="25" r="4" fill="#654321" opacity="0.6"/>
  <circle cx="25" cy="40" r="2.5" fill="#654321" opacity="0.6"/>
  <circle cx="42" cy="38" r="3.5" fill="#654321" opacity="0.6"/>
  
  <!-- Highlight spots -->
  <circle cx="25" cy="15" r="1.5" fill="#D2B48C" opacity="0.8"/>
  <circle cx="40" cy="20" r="1" fill="#D2B48C" opacity="0.8"/>
  <circle cx="20" cy="35" r="1.2" fill="#D2B48C" opacity="0.8"/>
  
  <!-- Small rock fragments -->
  <polygon points="12,25 15,22 18,25 15,28" fill="#5D4E37" opacity="0.7"/>
  <polygon points="45,30 48,28 50,32 47,34" fill="#5D4E37" opacity="0.7"/>
</svg>
